<svg width="198" height="24" viewBox="0 0 198 24" fill="none" xmlns="http://www.w3.org/2000/svg">
<path d="M0.972 22.892C1.332 22.892 1.656 22.604 1.656 22.208V1.436C1.656 1.076 1.332 0.751999 0.972 0.751999C0.9 0.751999 0.864 0.715999 0.864 0.643998C0.864 0.571999 0.9 0.5 0.972 0.5H10.584C13.32 0.5 15.552 2.732 15.552 5.468C15.552 7.808 13.932 9.752 11.736 10.256C14.796 10.832 17.1 13.46 17.1 16.664C17.1 20.228 14.184 23.144 10.584 23.144H0.972C0.9 23.144 0.864 23.072 0.864 23C0.864 22.964 0.9 22.892 0.972 22.892ZM10.584 0.751999H5.688V22.892H10.584C11.916 22.892 13.032 20.048 13.032 16.664C13.032 13.28 11.916 10.4 10.584 10.4H7.236C7.164 10.4 7.128 10.364 7.128 10.292C7.128 10.22 7.164 10.148 7.236 10.148H10.584C10.98 10.148 11.52 8.384 11.52 5.468C11.52 2.552 10.98 0.751999 10.584 0.751999ZM30.3339 9.104C30.7299 9.5 30.9459 10.004 30.9459 10.544C30.9459 11.084 30.7299 11.588 30.3339 11.984C29.9739 12.344 29.4339 12.56 28.8939 12.56C28.3539 12.56 27.8499 12.344 27.4899 11.984C27.0939 11.588 26.8779 11.084 26.8779 10.544C26.8779 10.004 27.0939 9.5 27.4899 9.104C27.8859 8.744 28.0659 8.456 28.0299 8.276C27.9939 8.096 27.7419 7.952 27.3099 7.88C26.9859 7.808 26.6979 7.772 26.3739 7.772C25.0059 7.772 23.7459 8.312 22.7739 9.14V22.208C22.7739 22.604 23.0619 22.892 23.4579 22.892C23.5299 22.892 23.5659 22.964 23.5659 23.036C23.5659 23.072 23.5299 23.144 23.4579 23.144H18.0579C17.9859 23.144 17.9499 23.072 17.9499 23.036C17.9499 22.964 17.9859 22.892 18.0579 22.892C18.4179 22.892 18.7419 22.604 18.7419 22.208V9.752C18.7419 9.356 18.4179 9.068 18.0579 9.068C17.9859 9.068 17.9499 8.996 17.9499 8.924C17.9499 8.852 17.9859 8.816 18.0579 8.816C19.7859 8.816 21.4419 8.06 22.5579 6.764C22.5579 6.728 22.5939 6.728 22.5939 6.728C22.6299 6.728 22.6299 6.728 22.6299 6.728C22.6659 6.728 22.6659 6.728 22.7019 6.728C22.7019 6.728 22.7019 6.728 22.7379 6.728V6.764C22.7379 6.764 22.7379 6.764 22.7379 6.8C22.7739 6.8 22.7739 6.8 22.7739 6.836V8.816C23.7459 8.024 25.0059 7.52 26.3739 7.52C26.6979 7.52 26.9859 7.556 27.2739 7.592C27.3099 7.592 27.3459 7.628 27.3459 7.628C28.4619 7.808 29.5059 8.312 30.3339 9.104ZM46.1571 20.3C46.2291 20.3 46.2651 20.372 46.2651 20.444C46.2651 21.92 45.0411 23.144 43.5651 23.144C42.1611 23.144 40.9731 22.064 40.8651 20.696C40.1451 22.136 38.6331 23.144 36.9051 23.144C34.4931 23.144 32.5131 21.164 32.5131 18.752C32.5131 16.304 34.4931 14.36 36.9051 14.36H38.8491C38.9211 14.36 38.9571 14.396 38.9571 14.468C38.9571 14.54 38.9211 14.612 38.8491 14.612H36.9411C36.7971 14.792 36.5811 16.304 36.5811 18.752C36.5811 21.2 36.7971 22.712 36.9411 22.892C38.7411 22.892 40.2891 21.704 40.8651 20.084V14.216C40.8651 10.652 39.6771 7.772 38.2011 7.772C37.5171 7.772 36.7971 7.88 36.1491 8.06C35.4651 8.312 35.0691 8.564 34.9971 8.888C34.9611 9.14 35.1411 9.464 35.5371 9.824C36.3291 10.616 36.3291 11.876 35.5371 12.668C35.1411 13.064 34.6371 13.28 34.1331 13.28C33.5931 13.28 33.0891 13.064 32.6931 12.668C31.9011 11.876 31.9011 10.616 32.6931 9.824C33.6291 8.852 34.8171 8.204 36.0771 7.844L36.1131 7.808C36.7971 7.628 37.4811 7.52 38.2011 7.52C41.9091 7.52 44.8971 10.544 44.8971 14.216L44.9331 20.444C44.9331 20.732 45.1491 20.984 45.4731 20.984C45.7611 20.984 46.0131 20.732 46.0131 20.444C46.0131 20.372 46.0851 20.3 46.1571 20.3ZM60.3416 18.968C60.4136 18.968 60.4856 19.04 60.4856 19.112V23C60.4856 23.072 60.4136 23.144 60.3416 23.144H47.2376C47.2016 23.144 47.1656 23.108 47.1296 23.072C47.0936 23.036 47.0936 23 47.1296 22.964L56.3456 7.772H51.1616C49.0736 7.772 47.3456 9.464 47.3456 11.552C47.3456 11.624 47.3096 11.696 47.2376 11.696C47.1656 11.696 47.1296 11.624 47.1296 11.552V7.664C47.1296 7.592 47.1656 7.52 47.2376 7.52H60.3416C60.3776 7.52 60.4496 7.556 60.4496 7.592C60.4856 7.628 60.4856 7.664 60.4496 7.736L51.2696 22.892H56.4536C58.5416 22.892 60.2336 21.2 60.2336 19.112C60.2336 19.04 60.2696 18.968 60.3416 18.968ZM67.7548 22.892C67.8268 22.892 67.8628 22.964 67.8628 23C67.8628 23.072 67.8268 23.144 67.7548 23.144H62.3548C62.2828 23.144 62.2468 23.072 62.2468 23C62.2468 22.964 62.2828 22.892 62.3548 22.892C62.7148 22.892 63.0388 22.604 63.0388 22.208V9.752C63.0388 9.752 63.0388 9.752 63.0388 9.716C63.0388 9.356 62.7148 9.068 62.3548 9.068C62.2828 9.068 62.2468 8.996 62.2468 8.924C62.2468 8.852 62.2828 8.816 62.3548 8.816C64.0828 8.816 65.7388 8.06 66.8548 6.764C66.8548 6.728 66.8908 6.728 66.8908 6.728C66.9268 6.728 66.9268 6.728 66.9268 6.728C66.9628 6.728 66.9628 6.728 66.9988 6.728C66.9988 6.728 66.9988 6.728 67.0348 6.728V6.764C67.0348 6.764 67.0348 6.764 67.0348 6.8C67.0708 6.8 67.0708 6.8 67.0708 6.836V8.924V22.208C67.0708 22.604 67.3588 22.892 67.7548 22.892ZM63.0388 9.104V9.068H62.9668C63.0028 9.068 63.0028 9.104 63.0388 9.104ZM65.0548 6.224C63.9388 6.224 63.0388 5.288 63.0388 4.172C63.0388 3.056 63.9388 2.156 65.0548 2.156C66.1708 2.156 67.0708 3.056 67.0708 4.172C67.0708 5.288 66.1708 6.224 65.0548 6.224ZM75.1376 22.892C75.2096 22.892 75.2456 22.964 75.2456 23C75.2456 23.072 75.2096 23.144 75.1376 23.144H69.7376C69.6656 23.144 69.6296 23.072 69.6296 23C69.6296 22.964 69.6656 22.892 69.7376 22.892C70.0976 22.892 70.4216 22.604 70.4216 22.208V3.524C70.4216 3.164 70.0976 2.84 69.7376 2.84C69.6656 2.84 69.6296 2.804 69.6296 2.732C69.6296 2.66 69.6656 2.588 69.7376 2.588C71.4656 2.588 73.1216 1.868 74.2376 0.536H74.2736C74.3096 0.536 74.3096 0.5 74.3096 0.5C74.3456 0.5 74.3456 0.536 74.3816 0.536C74.3816 0.536 74.3816 0.536 74.4176 0.536V0.571999C74.4536 0.607999 74.4536 0.607999 74.4536 0.643998V2.732V22.208C74.4536 22.604 74.7416 22.892 75.1376 22.892ZM82.5204 22.892C82.5924 22.892 82.6284 22.964 82.6284 23C82.6284 23.072 82.5924 23.144 82.5204 23.144H77.1204C77.0484 23.144 77.0124 23.072 77.0124 23C77.0124 22.964 77.0484 22.892 77.1204 22.892C77.4804 22.892 77.8044 22.604 77.8044 22.208V9.752C77.8044 9.752 77.8044 9.752 77.8044 9.716C77.8044 9.356 77.4804 9.068 77.1204 9.068C77.0484 9.068 77.0124 8.996 77.0124 8.924C77.0124 8.852 77.0484 8.816 77.1204 8.816C78.8484 8.816 80.5044 8.06 81.6204 6.764C81.6204 6.728 81.6564 6.728 81.6564 6.728C81.6924 6.728 81.6924 6.728 81.6924 6.728C81.7284 6.728 81.7284 6.728 81.7644 6.728C81.7644 6.728 81.7644 6.728 81.8004 6.728V6.764C81.8004 6.764 81.8004 6.764 81.8004 6.8C81.8364 6.8 81.8364 6.8 81.8364 6.836V8.924V22.208C81.8364 22.604 82.1244 22.892 82.5204 22.892ZM77.8044 9.104V9.068H77.7324C77.7684 9.068 77.7684 9.104 77.8044 9.104ZM79.8204 6.224C78.7044 6.224 77.8044 5.288 77.8044 4.172C77.8044 3.056 78.7044 2.156 79.8204 2.156C80.9364 2.156 81.8364 3.056 81.8364 4.172C81.8364 5.288 80.9364 6.224 79.8204 6.224ZM97.1336 20.3C97.2056 20.3 97.2416 20.372 97.2416 20.444C97.2416 21.92 96.0176 23.144 94.5416 23.144C93.1376 23.144 91.9496 22.064 91.8416 20.696C91.1216 22.136 89.6096 23.144 87.8816 23.144C85.4696 23.144 83.4896 21.164 83.4896 18.752C83.4896 16.304 85.4696 14.36 87.8816 14.36H89.8256C89.8976 14.36 89.9336 14.396 89.9336 14.468C89.9336 14.54 89.8976 14.612 89.8256 14.612H87.9176C87.7736 14.792 87.5576 16.304 87.5576 18.752C87.5576 21.2 87.7736 22.712 87.9176 22.892C89.7176 22.892 91.2656 21.704 91.8416 20.084V14.216C91.8416 10.652 90.6536 7.772 89.1776 7.772C88.4936 7.772 87.7736 7.88 87.1256 8.06C86.4416 8.312 86.0456 8.564 85.9736 8.888C85.9376 9.14 86.1176 9.464 86.5136 9.824C87.3056 10.616 87.3056 11.876 86.5136 12.668C86.1176 13.064 85.6136 13.28 85.1096 13.28C84.5696 13.28 84.0656 13.064 83.6696 12.668C82.8776 11.876 82.8776 10.616 83.6696 9.824C84.6056 8.852 85.7936 8.204 87.0536 7.844L87.0896 7.808C87.7736 7.628 88.4576 7.52 89.1776 7.52C92.8856 7.52 95.8736 10.544 95.8736 14.216L95.9096 20.444C95.9096 20.732 96.1256 20.984 96.4496 20.984C96.7376 20.984 96.9896 20.732 96.9896 20.444C96.9896 20.372 97.0616 20.3 97.1336 20.3ZM112.902 22.892C112.974 22.892 113.046 22.964 113.046 23.036C113.046 23.072 112.974 23.144 112.938 23.144H107.538C107.502 23.144 107.43 23.072 107.43 23.036C107.43 22.964 107.502 22.892 107.538 22.892C107.934 22.892 108.222 22.604 108.222 22.208V13.28C108.222 10.004 107.358 7.772 106.53 7.772C105.162 7.772 103.902 8.312 102.93 9.14V22.208C102.93 22.604 103.218 22.892 103.614 22.892C103.686 22.892 103.722 22.964 103.722 23C103.722 23.072 103.686 23.144 103.614 23.144H98.2142C98.1422 23.144 98.1062 23.072 98.1062 23C98.1062 22.964 98.1422 22.892 98.2142 22.892C98.5742 22.892 98.8982 22.604 98.8982 22.208V9.752C98.8982 9.716 98.8982 9.716 98.8982 9.716C98.8982 9.356 98.5742 9.068 98.2142 9.068C98.1422 9.068 98.1062 8.996 98.1062 8.924C98.1062 8.852 98.1422 8.816 98.2142 8.816C99.9422 8.816 101.598 8.06 102.714 6.764C102.714 6.728 102.75 6.728 102.75 6.728C102.786 6.728 102.786 6.728 102.786 6.728C102.822 6.728 102.822 6.728 102.858 6.728C102.858 6.728 102.858 6.728 102.894 6.728V6.764C102.894 6.764 102.894 6.764 102.894 6.8C102.93 6.8 102.93 6.8 102.93 6.836V8.816C103.902 8.024 105.162 7.52 106.53 7.52C109.698 7.52 112.254 10.112 112.254 13.28V22.244C112.254 22.604 112.542 22.892 112.902 22.892ZM114.913 4.676C114.841 4.676 114.805 4.604 114.805 4.532V0.643998C114.805 0.571999 114.841 0.5 114.913 0.5H130.105C130.177 0.5 130.249 0.571999 130.249 0.643998V4.532C130.249 4.604 130.177 4.676 130.105 4.676C130.033 4.676 129.997 4.604 129.997 4.532C129.997 2.444 128.269 0.751999 126.181 0.751999H124.525V22.208C124.525 22.604 124.849 22.892 125.209 22.892C125.281 22.892 125.317 22.964 125.317 23.036C125.317 23.072 125.281 23.144 125.209 23.144H119.809C119.737 23.144 119.701 23.072 119.701 23.036C119.701 22.964 119.737 22.892 119.809 22.892C120.169 22.892 120.493 22.604 120.493 22.208V0.751999H118.837C116.749 0.751999 115.021 2.444 115.021 4.532C115.021 4.604 114.985 4.676 114.913 4.676ZM138.686 9.104C139.082 9.5 139.298 10.004 139.298 10.544C139.298 11.084 139.082 11.588 138.686 11.984C138.326 12.344 137.786 12.56 137.246 12.56C136.706 12.56 136.202 12.344 135.842 11.984C135.446 11.588 135.23 11.084 135.23 10.544C135.23 10.004 135.446 9.5 135.842 9.104C136.238 8.744 136.418 8.456 136.382 8.276C136.346 8.096 136.094 7.952 135.662 7.88C135.338 7.808 135.05 7.772 134.726 7.772C133.358 7.772 132.098 8.312 131.126 9.14V22.208C131.126 22.604 131.414 22.892 131.81 22.892C131.882 22.892 131.918 22.964 131.918 23.036C131.918 23.072 131.882 23.144 131.81 23.144H126.41C126.338 23.144 126.302 23.072 126.302 23.036C126.302 22.964 126.338 22.892 126.41 22.892C126.77 22.892 127.094 22.604 127.094 22.208V9.752C127.094 9.356 126.77 9.068 126.41 9.068C126.338 9.068 126.302 8.996 126.302 8.924C126.302 8.852 126.338 8.816 126.41 8.816C128.138 8.816 129.794 8.06 130.91 6.764C130.91 6.728 130.946 6.728 130.946 6.728C130.982 6.728 130.982 6.728 130.982 6.728C131.018 6.728 131.018 6.728 131.054 6.728C131.054 6.728 131.054 6.728 131.09 6.728V6.764C131.09 6.764 131.09 6.764 131.09 6.8C131.126 6.8 131.126 6.8 131.126 6.836V8.816C132.098 8.024 133.358 7.52 134.726 7.52C135.05 7.52 135.338 7.556 135.626 7.592C135.662 7.592 135.698 7.628 135.698 7.628C136.814 7.808 137.858 8.312 138.686 9.104ZM147.015 7.52C151.335 7.52 154.827 11.048 154.827 15.332C154.827 15.404 154.791 15.476 154.719 15.476H145.323C145.251 15.476 145.179 15.404 145.179 15.332C145.179 15.26 145.251 15.224 145.323 15.224H150.795C150.759 11.12 149.067 7.772 147.015 7.772C144.963 7.772 143.271 11.156 143.271 15.332C143.271 19.508 144.963 22.892 147.015 22.892C149.031 22.892 150.939 22.1 152.379 20.696C152.415 20.624 152.487 20.624 152.559 20.696C152.595 20.732 152.595 20.804 152.559 20.84C151.083 22.316 149.103 23.144 147.015 23.144C142.731 23.144 139.239 19.652 139.239 15.332C139.239 11.048 142.731 7.52 147.015 7.52ZM170.488 22.892C170.56 22.892 170.632 22.964 170.632 23.036C170.632 23.072 170.56 23.144 170.524 23.144H165.124C165.088 23.144 165.016 23.072 165.016 23.036C165.016 22.964 165.088 22.892 165.124 22.892C165.52 22.892 165.808 22.604 165.808 22.208V13.28C165.808 10.004 164.944 7.772 164.116 7.772C162.748 7.772 161.488 8.312 160.516 9.14V22.208C160.516 22.604 160.804 22.892 161.2 22.892C161.272 22.892 161.308 22.964 161.308 23C161.308 23.072 161.272 23.144 161.2 23.144H155.8C155.728 23.144 155.692 23.072 155.692 23C155.692 22.964 155.728 22.892 155.8 22.892C156.16 22.892 156.484 22.604 156.484 22.208V9.752C156.484 9.716 156.484 9.716 156.484 9.716C156.484 9.356 156.16 9.068 155.8 9.068C155.728 9.068 155.692 8.996 155.692 8.924C155.692 8.852 155.728 8.816 155.8 8.816C157.528 8.816 159.184 8.06 160.3 6.764C160.3 6.728 160.336 6.728 160.336 6.728C160.372 6.728 160.372 6.728 160.372 6.728C160.408 6.728 160.408 6.728 160.444 6.728C160.444 6.728 160.444 6.728 160.48 6.728V6.764C160.48 6.764 160.48 6.764 160.48 6.8C160.516 6.8 160.516 6.8 160.516 6.836V8.816C161.488 8.024 162.748 7.52 164.116 7.52C167.284 7.52 169.84 10.112 169.84 13.28V22.244C169.84 22.604 170.128 22.892 170.488 22.892ZM185.517 22.892C185.589 22.892 185.625 22.964 185.625 23.036C185.625 23.072 185.589 23.144 185.517 23.144H180.909C180.873 23.144 180.801 23.072 180.801 23.036V21.848C179.829 22.676 178.569 23.144 177.201 23.144C174.033 23.144 171.477 20.588 171.477 17.42V13.28C171.477 10.112 174.033 7.52 177.201 7.52C178.569 7.52 179.829 8.024 180.801 8.816V3.524C180.801 3.164 180.513 2.84 180.117 2.84C180.045 2.84 180.009 2.804 180.009 2.732C180.009 2.66 180.045 2.588 180.117 2.588C181.845 2.588 183.501 1.868 184.617 0.536C184.653 0.536 184.653 0.536 184.689 0.536C184.689 0.536 184.689 0.5 184.725 0.5C184.725 0.5 184.725 0.536 184.761 0.536H184.797C184.797 0.536 184.797 0.571999 184.833 0.571999C184.833 0.571999 184.833 0.607999 184.833 0.643998V22.208C184.833 22.604 185.157 22.892 185.517 22.892ZM180.801 21.524V9.14C179.829 8.312 178.569 7.772 177.201 7.772C176.373 7.772 175.509 10.004 175.509 13.28V17.42C175.509 20.696 176.373 22.892 177.201 22.892C178.569 22.892 179.829 22.388 180.801 21.524ZM191.732 7.772C190.364 7.772 189.248 8.924 189.248 10.292C189.248 10.868 189.428 11.408 189.788 11.876C190.328 12.524 191.3 12.848 192.128 13.1C192.344 13.172 192.56 13.244 192.776 13.316L194.972 14.072C196.736 14.792 197.888 16.52 197.888 18.428C197.888 21.02 195.8 23.144 193.208 23.144H187.16C187.088 23.144 187.052 23.072 187.052 23.036V19.112C187.052 19.04 187.088 18.968 187.16 18.968C187.232 18.968 187.268 19.04 187.268 19.112C187.268 21.2 188.996 22.892 191.084 22.892H193.208C194.576 22.892 195.691 21.776 195.691 20.408C195.691 19.292 195.008 18.32 193.964 17.996L190.976 16.952C189.824 16.556 188.672 16.016 187.916 14.972C187.34 14.18 187.052 13.208 187.052 12.236C187.052 9.644 189.14 7.52 191.732 7.52H193.856H197.78C197.852 7.52 197.888 7.592 197.888 7.664V11.552C197.888 11.624 197.852 11.696 197.78 11.696C197.708 11.696 197.636 11.624 197.636 11.552C197.636 9.5 195.944 7.772 193.892 7.772C193.856 7.772 193.856 7.772 193.856 7.772H191.732Z" fill="#BE2233"/>
</svg>
